<!--?xml version="1.0" encoding="UTF-8"?-->
<svg width="208px" height="130px" viewBox="0 0 208 130" version="1.1" xmlns="http://www.w3.org/2000/svg" xmlns:xlink="http://www.w3.org/1999/xlink" style="">
    <!-- Generator: Sketch 50.2 (55047) - http://www.bohemiancoding.com/sketch -->
    <title>Group 8</title>
    <desc>Created with Sketch.</desc>
    <defs></defs>
    <g id="Page-1" stroke="none" stroke-width="1" fill="none" fill-rule="evenodd">
        <g id="Group-8" transform="translate(4.000000, 4.000000)">
            <path d="M99.8567553,111.461342 C149.309197,111.461342 189.398322,60.7449989 189.398322,60.7449989 C189.398322,60.7449989 149.309197,10.0286555 99.8567553,10.0286555 C50.4043135,10.0286555 10.3151885,60.7449989 10.3151885,60.7449989 C10.3151885,60.7449989 50.4043135,111.461342 99.8567553,111.461342 Z" id="Oval" fill="#000000" class="ygSOCmqb_0"></path>
            <path id="Rectangle" stroke="#FFFFFF" stroke-width="0.3" width="80.7888429" height="60.4449989" d="M59.4623339 30.5224995 L140.2511768 30.5224995 L140.2511768 90.9674984 L59.4623339 90.9674984 Z" class="ygSOCmqb_1"></path>
            <path id="Rectangle" stroke="#FFFFFF" stroke-width="0.3" transform="translate(99.856755, 60.744999) rotate(-9.000000) translate(-99.856755, -60.744999) " width="80.7888429" height="60.4449989" d="M59.4623339 30.5224995 L140.2511768 30.5224995 L140.2511768 90.9674984 L59.4623339 90.9674984 Z" class="ygSOCmqb_2"></path>
            <path id="Rectangle" stroke="#FFFFFF" stroke-width="0.3" transform="translate(99.856755, 60.744999) rotate(-15.000000) translate(-99.856755, -60.744999) " width="80.7888429" height="60.4449989" d="M59.4623339 30.5224995 L140.2511768 30.5224995 L140.2511768 90.9674984 L59.4623339 90.9674984 Z" class="ygSOCmqb_3"></path>
            <path id="Rectangle" stroke="#FFFFFF" stroke-width="0.3" transform="translate(99.856755, 60.744999) rotate(-21.000000) translate(-99.856755, -60.744999) " width="80.7888429" height="60.4449989" d="M59.4623339 30.5224995 L140.2511768 30.5224995 L140.2511768 90.9674984 L59.4623339 90.9674984 Z" class="ygSOCmqb_4"></path>
            <path id="Rectangle" stroke="#FFFFFF" stroke-width="0.3" transform="translate(99.856755, 60.744999) rotate(-27.000000) translate(-99.856755, -60.744999) " width="80.7888429" height="60.4449989" d="M59.4623339 30.5224995 L140.2511768 30.5224995 L140.2511768 90.9674984 L59.4623339 90.9674984 Z" class="ygSOCmqb_5"></path>
            <path id="Rectangle" stroke="#FFFFFF" stroke-width="0.3" transform="translate(99.856755, 60.744999) rotate(-33.000000) translate(-99.856755, -60.744999) " width="80.7888429" height="60.4449989" d="M59.4623339 30.5224995 L140.2511768 30.5224995 L140.2511768 90.9674984 L59.4623339 90.9674984 Z" class="ygSOCmqb_6"></path>
            <path id="Rectangle" stroke="#FFFFFF" stroke-width="0.3" transform="translate(99.856755, 60.744999) rotate(-39.000000) translate(-99.856755, -60.744999) " width="80.7888429" height="60.4449989" d="M59.4623339 30.5224995 L140.2511768 30.5224995 L140.2511768 90.9674984 L59.4623339 90.9674984 Z" class="ygSOCmqb_7"></path>
            <path id="Rectangle" stroke="#FFFFFF" stroke-width="0.3" transform="translate(99.856755, 60.744999) rotate(-45.000000) translate(-99.856755, -60.744999) " width="80.7888429" height="60.4449989" d="M59.4623339 30.5224995 L140.2511768 30.5224995 L140.2511768 90.9674984 L59.4623339 90.9674984 Z" class="ygSOCmqb_8"></path>
            <path id="Rectangle" stroke="#FFFFFF" stroke-width="0.3" transform="translate(99.856755, 60.744999) rotate(-51.000000) translate(-99.856755, -60.744999) " width="80.7888429" height="60.4449989" d="M59.4623339 30.5224995 L140.2511768 30.5224995 L140.2511768 90.9674984 L59.4623339 90.9674984 Z" class="ygSOCmqb_9"></path>
            <path id="Rectangle" stroke="#FFFFFF" stroke-width="0.3" transform="translate(99.856755, 60.744999) rotate(-58.000000) translate(-99.856755, -60.744999) " width="80.7888429" height="60.4449989" d="M59.4623339 30.5224995 L140.2511768 30.5224995 L140.2511768 90.9674984 L59.4623339 90.9674984 Z" class="ygSOCmqb_10"></path>
            <path id="Rectangle" stroke="#FFFFFF" stroke-width="0.3" transform="translate(99.856755, 60.744999) rotate(-64.000000) translate(-99.856755, -60.744999) " width="80.7888429" height="60.4449989" d="M59.4623339 30.5224995 L140.2511768 30.5224995 L140.2511768 90.9674984 L59.4623339 90.9674984 Z" class="ygSOCmqb_11"></path>
            <path id="Rectangle" stroke="#FFFFFF" stroke-width="0.3" transform="translate(99.856755, 60.744999) rotate(-69.000000) translate(-99.856755, -60.744999) " width="80.7888429" height="60.4449989" d="M59.4623339 30.5224995 L140.2511768 30.5224995 L140.2511768 90.9674984 L59.4623339 90.9674984 Z" class="ygSOCmqb_12"></path>
            <path id="Rectangle" stroke="#FFFFFF" stroke-width="0.3" transform="translate(99.856755, 60.744999) rotate(-75.000000) translate(-99.856755, -60.744999) " width="80.7888429" height="60.4449989" d="M59.4623339 30.5224995 L140.2511768 30.5224995 L140.2511768 90.9674984 L59.4623339 90.9674984 Z" class="ygSOCmqb_13"></path>
            <path id="Rectangle" stroke="#FFFFFF" stroke-width="0.3" transform="translate(99.856755, 60.744999) rotate(-81.000000) translate(-99.856755, -60.744999) " width="80.7888429" height="60.4449989" d="M59.4623339 30.5224995 L140.2511768 30.5224995 L140.2511768 90.9674984 L59.4623339 90.9674984 Z" class="ygSOCmqb_14"></path>
            <path id="Rectangle" stroke="#FFFFFF" stroke-width="0.3" transform="translate(99.856755, 60.744999) rotate(-86.000000) translate(-99.856755, -60.744999) " width="80.7888429" height="60.4449989" d="M59.4623339 30.5224995 L140.2511768 30.5224995 L140.2511768 90.9674984 L59.4623339 90.9674984 Z" class="ygSOCmqb_15"></path>
            <path id="Rectangle" stroke="#FFFFFF" stroke-width="0.3" transform="translate(99.856755, 60.744999) rotate(-91.000000) translate(-99.856755, -60.744999) " width="80.7888429" height="60.4449989" d="M59.4623339 30.5224995 L140.2511768 30.5224995 L140.2511768 90.9674984 L59.4623339 90.9674984 Z" class="ygSOCmqb_16"></path>
            <path id="Rectangle" stroke="#FFFFFF" stroke-width="0.3" transform="translate(99.856755, 60.744999) rotate(-98.000000) translate(-99.856755, -60.744999) " width="80.7888429" height="60.4449989" d="M59.4623339 30.5224995 L140.2511768 30.5224995 L140.2511768 90.9674984 L59.4623339 90.9674984 Z" class="ygSOCmqb_17"></path>
            <path id="Rectangle" stroke="#FFFFFF" stroke-width="0.3" transform="translate(99.856755, 60.744999) rotate(-103.000000) translate(-99.856755, -60.744999) " width="80.7888429" height="60.4449989" d="M59.4623339 30.5224995 L140.2511768 30.5224995 L140.2511768 90.9674984 L59.4623339 90.9674984 Z" class="ygSOCmqb_18"></path>
            <path id="Rectangle" stroke="#FFFFFF" stroke-width="0.3" transform="translate(99.856755, 60.744999) rotate(-111.000000) translate(-99.856755, -60.744999) " width="80.7888429" height="60.4449989" d="M59.4623339 30.5224995 L140.2511768 30.5224995 L140.2511768 90.9674984 L59.4623339 90.9674984 Z" class="ygSOCmqb_19"></path>
            <path id="Rectangle" stroke="#FFFFFF" stroke-width="0.3" transform="translate(99.856755, 60.744999) rotate(-118.000000) translate(-99.856755, -60.744999) " width="80.7888429" height="60.4449989" d="M59.4623339 30.5224995 L140.2511768 30.5224995 L140.2511768 90.9674984 L59.4623339 90.9674984 Z" class="ygSOCmqb_20"></path>
            <path id="Rectangle" stroke="#FFFFFF" stroke-width="0.3" transform="translate(99.856755, 60.744999) rotate(-125.000000) translate(-99.856755, -60.744999) " width="80.7888429" height="60.4449989" d="M59.4623339 30.5224995 L140.2511768 30.5224995 L140.2511768 90.9674984 L59.4623339 90.9674984 Z" class="ygSOCmqb_21"></path>
            <path id="Rectangle" stroke="#FFFFFF" stroke-width="0.3" transform="translate(99.856755, 60.744999) rotate(-131.000000) translate(-99.856755, -60.744999) " width="80.7888429" height="60.4449989" d="M59.4623339 30.5224995 L140.2511768 30.5224995 L140.2511768 90.9674984 L59.4623339 90.9674984 Z" class="ygSOCmqb_22"></path>
            <path id="Rectangle" stroke="#FFFFFF" stroke-width="0.3" transform="translate(99.856755, 60.744999) rotate(-137.000000) translate(-99.856755, -60.744999) " width="80.7888429" height="60.4449989" d="M59.4623339 30.5224995 L140.2511768 30.5224995 L140.2511768 90.9674984 L59.4623339 90.9674984 Z" class="ygSOCmqb_23"></path>
            <path id="Rectangle" stroke="#FFFFFF" stroke-width="0.3" transform="translate(99.856755, 60.744999) rotate(-142.000000) translate(-99.856755, -60.744999) " width="80.7888429" height="60.4449989" d="M59.4623339 30.5224995 L140.2511768 30.5224995 L140.2511768 90.9674984 L59.4623339 90.9674984 Z" class="ygSOCmqb_24"></path>
            <path id="Rectangle" stroke="#FFFFFF" stroke-width="0.3" transform="translate(99.856755, 60.744999) rotate(211.000000) translate(-99.856755, -60.744999) " width="80.7888429" height="60.4449989" d="M59.4623339 30.5224995 L140.2511768 30.5224995 L140.2511768 90.9674984 L59.4623339 90.9674984 Z" class="ygSOCmqb_25"></path>
            <path id="Rectangle" stroke="#FFFFFF" stroke-width="0.3" transform="translate(99.856755, 60.744999) rotate(205.000000) translate(-99.856755, -60.744999) " width="80.7888429" height="60.4449989" d="M59.4623339 30.5224995 L140.2511768 30.5224995 L140.2511768 90.9674984 L59.4623339 90.9674984 Z" class="ygSOCmqb_26"></path>
            <path id="Rectangle" stroke="#FFFFFF" stroke-width="0.3" transform="translate(99.856755, 60.744999) rotate(198.000000) translate(-99.856755, -60.744999) " width="80.7888429" height="60.4449989" d="M59.4623339 30.5224995 L140.2511768 30.5224995 L140.2511768 90.9674984 L59.4623339 90.9674984 Z" class="ygSOCmqb_27"></path>
            <path id="Rectangle" stroke="#FFFFFF" stroke-width="0.3" transform="translate(99.856755, 60.744999) rotate(192.000000) translate(-99.856755, -60.744999) " width="80.7888429" height="60.4449989" d="M59.4623339 30.5224995 L140.2511768 30.5224995 L140.2511768 90.9674984 L59.4623339 90.9674984 Z" class="ygSOCmqb_28"></path>
            <path id="Rectangle" stroke="#FFFFFF" stroke-width="0.3" transform="translate(99.856755, 60.744999) rotate(187.000000) translate(-99.856755, -60.744999) " width="80.7888429" height="60.4449989" d="M59.4623339 30.5224995 L140.2511768 30.5224995 L140.2511768 90.9674984 L59.4623339 90.9674984 Z" class="ygSOCmqb_29"></path>
            <path id="Rectangle" stroke="#FFFFFF" stroke-width="0.3" transform="translate(99.856755, 60.744999) rotate(182.000000) translate(-99.856755, -60.744999) " width="80.7888429" height="60.4449989" d="M59.4623339 30.5224995 L140.2511768 30.5224995 L140.2511768 90.9674984 L59.4623339 90.9674984 Z" class="ygSOCmqb_30"></path>
            <path id="Rectangle" stroke="#FFFFFF" stroke-width="0.3" transform="translate(99.856755, 60.744999) rotate(175.000000) translate(-99.856755, -60.744999) " width="80.7888429" height="60.4449989" d="M59.4623339 30.5224995 L140.2511768 30.5224995 L140.2511768 90.9674984 L59.4623339 90.9674984 Z" class="ygSOCmqb_31"></path>
            <g id="Group-5-Copy-4" stroke="#E90000" stroke-linecap="square" stroke-width="8">
                <path d="M0.429799521,0.143266507 L0.429799521,38.9687542" id="Line-2-Copy-3" class="ygSOCmqb_32"></path>
                <path d="M0.573066028,0 L39.5415559,0" id="Line-2-Copy-3" class="ygSOCmqb_33"></path>
            </g>
            <g id="Group-5-Copy-5" transform="translate(180.000044, 101.489998) rotate(-180.000000) translate(-180.000044, -101.489998) translate(160.000044, 81.489998)" stroke="#E90000" stroke-linecap="square" stroke-width="8">
                <path d="M0.429799521,0.143266507 L0.429799521,38.9687542" id="Line-2-Copy-3" class="ygSOCmqb_34"></path>
                <path d="M0.573066028,0 L39.3985537,0" id="Line-2-Copy-3" class="ygSOCmqb_35"></path>
            </g>
        </g>
    </g>
<style data-made-with="vivus-instant">.ygSOCmqb_0{stroke-dasharray:425 427;stroke-dashoffset:426;animation:ygSOCmqb_draw 45ms linear 0ms forwards;}.ygSOCmqb_1{stroke-dasharray:283 285;stroke-dashoffset:284;animation:ygSOCmqb_draw 30ms linear 45ms forwards;}.ygSOCmqb_2{stroke-dasharray:283 285;stroke-dashoffset:284;animation:ygSOCmqb_draw 30ms linear 75ms forwards;}.ygSOCmqb_3{stroke-dasharray:283 285;stroke-dashoffset:284;animation:ygSOCmqb_draw 30ms linear 105ms forwards;}.ygSOCmqb_4{stroke-dasharray:283 285;stroke-dashoffset:284;animation:ygSOCmqb_draw 30ms linear 136ms forwards;}.ygSOCmqb_5{stroke-dasharray:283 285;stroke-dashoffset:284;animation:ygSOCmqb_draw 30ms linear 166ms forwards;}.ygSOCmqb_6{stroke-dasharray:283 285;stroke-dashoffset:284;animation:ygSOCmqb_draw 30ms linear 196ms forwards;}.ygSOCmqb_7{stroke-dasharray:283 285;stroke-dashoffset:284;animation:ygSOCmqb_draw 30ms linear 226ms forwards;}.ygSOCmqb_8{stroke-dasharray:283 285;stroke-dashoffset:284;animation:ygSOCmqb_draw 30ms linear 257ms forwards;}.ygSOCmqb_9{stroke-dasharray:283 285;stroke-dashoffset:284;animation:ygSOCmqb_draw 30ms linear 287ms forwards;}.ygSOCmqb_10{stroke-dasharray:283 285;stroke-dashoffset:284;animation:ygSOCmqb_draw 30ms linear 317ms forwards;}.ygSOCmqb_11{stroke-dasharray:283 285;stroke-dashoffset:284;animation:ygSOCmqb_draw 30ms linear 347ms forwards;}.ygSOCmqb_12{stroke-dasharray:283 285;stroke-dashoffset:284;animation:ygSOCmqb_draw 30ms linear 378ms forwards;}.ygSOCmqb_13{stroke-dasharray:283 285;stroke-dashoffset:284;animation:ygSOCmqb_draw 30ms linear 408ms forwards;}.ygSOCmqb_14{stroke-dasharray:283 285;stroke-dashoffset:284;animation:ygSOCmqb_draw 30ms linear 438ms forwards;}.ygSOCmqb_15{stroke-dasharray:283 285;stroke-dashoffset:284;animation:ygSOCmqb_draw 30ms linear 468ms forwards;}.ygSOCmqb_16{stroke-dasharray:283 285;stroke-dashoffset:284;animation:ygSOCmqb_draw 30ms linear 499ms forwards;}.ygSOCmqb_17{stroke-dasharray:283 285;stroke-dashoffset:284;animation:ygSOCmqb_draw 30ms linear 529ms forwards;}.ygSOCmqb_18{stroke-dasharray:283 285;stroke-dashoffset:284;animation:ygSOCmqb_draw 30ms linear 559ms forwards;}.ygSOCmqb_19{stroke-dasharray:283 285;stroke-dashoffset:284;animation:ygSOCmqb_draw 30ms linear 589ms forwards;}.ygSOCmqb_20{stroke-dasharray:283 285;stroke-dashoffset:284;animation:ygSOCmqb_draw 30ms linear 620ms forwards;}.ygSOCmqb_21{stroke-dasharray:283 285;stroke-dashoffset:284;animation:ygSOCmqb_draw 30ms linear 650ms forwards;}.ygSOCmqb_22{stroke-dasharray:283 285;stroke-dashoffset:284;animation:ygSOCmqb_draw 30ms linear 680ms forwards;}.ygSOCmqb_23{stroke-dasharray:283 285;stroke-dashoffset:284;animation:ygSOCmqb_draw 30ms linear 710ms forwards;}.ygSOCmqb_24{stroke-dasharray:283 285;stroke-dashoffset:284;animation:ygSOCmqb_draw 30ms linear 741ms forwards;}.ygSOCmqb_25{stroke-dasharray:283 285;stroke-dashoffset:284;animation:ygSOCmqb_draw 30ms linear 771ms forwards;}.ygSOCmqb_26{stroke-dasharray:283 285;stroke-dashoffset:284;animation:ygSOCmqb_draw 30ms linear 801ms forwards;}.ygSOCmqb_27{stroke-dasharray:283 285;stroke-dashoffset:284;animation:ygSOCmqb_draw 30ms linear 831ms forwards;}.ygSOCmqb_28{stroke-dasharray:283 285;stroke-dashoffset:284;animation:ygSOCmqb_draw 30ms linear 861ms forwards;}.ygSOCmqb_29{stroke-dasharray:283 285;stroke-dashoffset:284;animation:ygSOCmqb_draw 30ms linear 892ms forwards;}.ygSOCmqb_30{stroke-dasharray:283 285;stroke-dashoffset:284;animation:ygSOCmqb_draw 30ms linear 922ms forwards;}.ygSOCmqb_31{stroke-dasharray:283 285;stroke-dashoffset:284;animation:ygSOCmqb_draw 30ms linear 952ms forwards;}.ygSOCmqb_32{stroke-dasharray:39 41;stroke-dashoffset:40;animation:ygSOCmqb_draw 4ms linear 982ms forwards;}.ygSOCmqb_33{stroke-dasharray:39 41;stroke-dashoffset:40;animation:ygSOCmqb_draw 4ms linear 987ms forwards;}.ygSOCmqb_34{stroke-dasharray:39 41;stroke-dashoffset:40;animation:ygSOCmqb_draw 4ms linear 991ms forwards;}.ygSOCmqb_35{stroke-dasharray:39 41;stroke-dashoffset:40;animation:ygSOCmqb_draw 4ms linear 995ms forwards;}@keyframes ygSOCmqb_draw{100%{stroke-dashoffset:0;}}@keyframes ygSOCmqb_fade{0%{stroke-opacity:1;}92.3076923076923%{stroke-opacity:1;}100%{stroke-opacity:0;}}</style></svg>