<!--?xml version="1.0" encoding="UTF-8"?-->
<svg width="180px" height="102px" viewBox="0 0 180 102" version="1.1" xmlns="http://www.w3.org/2000/svg" xmlns:xlink="http://www.w3.org/1999/xlink" style="">
    <!-- Generator: Sketch 50.2 (55047) - http://www.bohemiancoding.com/sketch -->
    <title>Group 8</title>
    <desc>Created with Sketch.</desc>
    <defs></defs>
    <g id="Page-1" stroke="none" stroke-width="1" fill="none" fill-rule="evenodd">
        <g id="Group-8">
            <path d="M89.5415668,101.432687 C138.994009,101.432687 179.083134,50.7163434 179.083134,50.7163434 C179.083134,50.7163434 138.994009,0 89.5415668,0 C40.089125,0 0,50.7163434 0,50.7163434 C0,50.7163434 40.089125,101.432687 89.5415668,101.432687 Z" id="Oval-Copy" fill="#000000" class="uWfjCQcL_0"></path>
            <path id="Rectangle-Copy" stroke="#FFFFFF" stroke-width="0.3" width="80.7888429" height="60.4449989" d="M49.15 20.15 L129.9388429 20.15 L129.9388429 80.59499890000001 L49.15 80.59499890000001 Z" class="uWfjCQcL_1"></path>
            <path id="Rectangle-Copy-2" stroke="#FFFFFF" stroke-width="0.3" transform="translate(89.796558, 50.341108) rotate(-9.000000) translate(-89.796558, -50.341108) " width="80.7888429" height="60.4449989" d="M49.4021366 20.118609 L130.1909795 20.118609 L130.1909795 80.5636079 L49.4021366 80.5636079 Z" class="uWfjCQcL_2"></path>
            <path id="Rectangle-Copy-3" stroke="#FFFFFF" stroke-width="0.3" transform="translate(90.023885, 50.831250) rotate(-15.000000) translate(-90.023885, -50.831250) " width="80.7888429" height="60.4449989" d="M49.6294636 20.6087506 L130.4183065 20.6087506 L130.4183065 81.05374950000001 L49.6294636 81.05374950000001 Z" class="uWfjCQcL_3"></path>
            <path id="Rectangle-Copy-4" stroke="#FFFFFF" stroke-width="0.3" transform="translate(89.736009, 50.884992) rotate(-21.000000) translate(-89.736009, -50.884992) " width="80.7888429" height="60.4449989" d="M49.3415872 20.6624927 L130.1304301 20.6624927 L130.1304301 81.1074916 L49.3415872 81.1074916 Z" class="uWfjCQcL_4"></path>
            <path id="Rectangle-Copy-5" stroke="#FFFFFF" stroke-width="0.3" transform="translate(89.914170, 50.468877) rotate(-27.000000) translate(-89.914170, -50.468877) " width="80.7888429" height="60.4449989" d="M49.5197488 20.2463779 L130.30859170000002 20.2463779 L130.30859170000002 80.6913768 L49.5197488 80.6913768 Z" class="uWfjCQcL_5"></path>
            <path id="Rectangle-Copy-6" stroke="#FFFFFF" stroke-width="0.3" transform="translate(89.545462, 50.554596) rotate(-33.000000) translate(-89.545462, -50.554596) " width="80.7888429" height="60.4449989" d="M49.1510403 20.3320965 L129.9398832 20.3320965 L129.9398832 80.77709540000001 L49.1510403 80.77709540000001 Z" class="uWfjCQcL_6"></path>
            <path id="Rectangle-Copy-7" stroke="#FFFFFF" stroke-width="0.3" transform="translate(89.622967, 51.119296) rotate(-39.000000) translate(-89.622967, -51.119296) " width="80.7888429" height="60.4449989" d="M49.2285452 20.896797 L130.0173881 20.896797 L130.0173881 81.3417959 L49.2285452 81.3417959 Z" class="uWfjCQcL_7"></path>
            <path id="Rectangle-Copy-8" stroke="#FFFFFF" stroke-width="0.3" transform="translate(90.145836, 51.145836) rotate(-45.000000) translate(-90.145836, -51.145836) " width="80.7888429" height="60.4449989" d="M49.7514142 20.9233362 L130.54025710000002 20.9233362 L130.54025710000002 81.3683351 L49.7514142 81.3683351 Z" class="uWfjCQcL_8"></path>
            <path id="Rectangle-Copy-9" stroke="#FFFFFF" stroke-width="0.3" transform="translate(90.119296, 50.622967) rotate(-51.000000) translate(-90.119296, -50.622967) " width="80.7888429" height="60.4449989" d="M49.724875 20.4004672 L130.51371790000002 20.4004672 L130.51371790000002 80.84546610000001 L49.724875 80.84546610000001 Z" class="uWfjCQcL_9"></path>
            <path id="Rectangle-Copy-10" stroke="#FFFFFF" stroke-width="0.3" transform="translate(90.242610, 50.478592) rotate(-58.000000) translate(-90.242610, -50.478592) " width="80.7888429" height="60.4449989" d="M49.8481889 20.2560925 L130.6370318 20.2560925 L130.6370318 80.7010914 L49.8481889 80.7010914 Z" class="uWfjCQcL_10"></path>
            <path id="Rectangle-Copy-11" stroke="#FFFFFF" stroke-width="0.3" transform="translate(90.072126, 50.755512) rotate(-64.000000) translate(-90.072126, -50.755512) " width="80.7888429" height="60.4449989" d="M49.6777048 20.5330126 L130.4665477 20.5330126 L130.4665477 80.97801150000001 L49.6777048 80.97801150000001 Z" class="uWfjCQcL_11"></path>
            <path id="Rectangle-Copy-12" stroke="#FFFFFF" stroke-width="0.3" transform="translate(89.884992, 50.736009) rotate(-69.000000) translate(-89.884992, -50.736009) " width="80.7888429" height="60.4449989" d="M49.4905707 20.5135092 L130.2794136 20.5135092 L130.2794136 80.9585081 L49.4905707 80.9585081 Z" class="uWfjCQcL_12"></path>
            <path id="Rectangle-Copy-13" stroke="#FFFFFF" stroke-width="0.3" transform="translate(89.831250, 51.023885) rotate(-75.000000) translate(-89.831250, -51.023885) " width="80.7888429" height="60.4449989" d="M49.4368286 20.8013856 L130.2256715 20.8013856 L130.2256715 81.2463845 L49.4368286 81.2463845 Z" class="uWfjCQcL_13"></path>
            <path id="Rectangle-Copy-14" stroke="#FFFFFF" stroke-width="0.3" transform="translate(90.341108, 50.796558) rotate(-81.000000) translate(-90.341108, -50.796558) " width="80.7888429" height="60.4449989" d="M49.946687 20.5740586 L130.73552990000002 20.5740586 L130.73552990000002 81.0190575 L49.946687 81.0190575 Z" class="uWfjCQcL_14"></path>
            <path id="Rectangle-Copy-15" stroke="#FFFFFF" stroke-width="0.3" transform="translate(90.126749, 50.564336) rotate(-86.000000) translate(-90.126749, -50.564336) " width="80.7888429" height="60.4449989" d="M49.732328 20.3418363 L130.52117090000002 20.3418363 L130.52117090000002 80.7868352 L49.732328 80.7868352 Z" class="uWfjCQcL_15"></path>
            <path id="Rectangle-Copy-16" stroke="#FFFFFF" stroke-width="0.3" transform="translate(90.075471, 51.068320) rotate(-91.000000) translate(-90.075471, -51.068320) " width="80.7888429" height="60.4449989" d="M49.6810499 20.8458201 L130.4698928 20.8458201 L130.4698928 81.290819 L49.6810499 81.290819 Z" class="uWfjCQcL_16"></path>
            <path id="Rectangle-Copy-17" stroke="#FFFFFF" stroke-width="0.3" transform="translate(89.719609, 50.376881) rotate(-98.000000) translate(-89.719609, -50.376881) " width="80.7888429" height="60.4449989" d="M49.3251878 20.1543814 L130.1140307 20.1543814 L130.1140307 80.5993803 L49.3251878 80.5993803 Z" class="uWfjCQcL_17"></path>
            <path id="Rectangle-Copy-18" stroke="#FFFFFF" stroke-width="0.3" transform="translate(89.714565, 50.337596) rotate(-103.000000) translate(-89.714565, -50.337596) " width="80.7888429" height="60.4449989" d="M49.3201432 20.1150969 L130.1089861 20.1150969 L130.1089861 80.5600958 L49.3201432 80.5600958 Z" class="uWfjCQcL_18"></path>
            <path id="Rectangle-Copy-19" stroke="#FFFFFF" stroke-width="0.3" transform="translate(89.884992, 50.736009) rotate(-111.000000) translate(-89.884992, -50.736009) " width="80.7888429" height="60.4449989" d="M49.4905707 20.5135092 L130.2794136 20.5135092 L130.2794136 80.9585081 L49.4905707 80.9585081 Z" class="uWfjCQcL_19"></path>
            <path id="Rectangle-Copy-20" stroke="#FFFFFF" stroke-width="0.3" transform="translate(89.851778, 51.057624) rotate(-118.000000) translate(-89.851778, -51.057624) " width="80.7888429" height="60.4449989" d="M49.4573567 20.8351247 L130.2461996 20.8351247 L130.2461996 81.2801236 L49.4573567 81.2801236 Z" class="uWfjCQcL_20"></path>
            <path id="Rectangle-Copy-21" stroke="#FFFFFF" stroke-width="0.3" transform="translate(90.135020, 50.632996) rotate(-125.000000) translate(-90.135020, -50.632996) " width="80.7888429" height="60.4449989" d="M49.7405983 20.4104963 L130.5294412 20.4104963 L130.5294412 80.85549520000001 L49.7405983 80.85549520000001 Z" class="uWfjCQcL_21"></path>
            <path id="Rectangle-Copy-22" stroke="#FFFFFF" stroke-width="0.3" transform="translate(89.521950, 50.525416) rotate(-131.000000) translate(-89.521950, -50.525416) " width="80.7888429" height="60.4449989" d="M49.1275286 20.3029163 L129.9163715 20.3029163 L129.9163715 80.7479152 L49.1275286 80.7479152 Z" class="uWfjCQcL_22"></path>
            <path id="Rectangle-Copy-23" stroke="#FFFFFF" stroke-width="0.3" transform="translate(89.366308, 50.864269) rotate(-137.000000) translate(-89.366308, -50.864269) " width="80.7888429" height="60.4449989" d="M48.9718861 20.6417694 L129.760729 20.6417694 L129.760729 81.0867683 L48.9718861 81.0867683 Z" class="uWfjCQcL_23"></path>
            <path id="Rectangle-Copy-24" stroke="#FFFFFF" stroke-width="0.3" transform="translate(89.648618, 50.895495) rotate(-142.000000) translate(-89.648618, -50.895495) " width="80.7888429" height="60.4449989" d="M49.2541965 20.6729951 L130.0430394 20.6729951 L130.0430394 81.11799400000001 L49.2541965 81.11799400000001 Z" class="uWfjCQcL_24"></path>
            <path id="Rectangle-Copy-25" stroke="#FFFFFF" stroke-width="0.3" transform="translate(89.396346, 50.916234) rotate(211.000000) translate(-89.396346, -50.916234) " width="80.7888429" height="60.4449989" d="M49.0019245 20.6937347 L129.7907674 20.6937347 L129.7907674 81.1387336 L49.0019245 81.1387336 Z" class="uWfjCQcL_25"></path>
            <path id="Rectangle-Copy-26" stroke="#FFFFFF" stroke-width="0.3" transform="translate(89.581698, 50.661646) rotate(205.000000) translate(-89.581698, -50.661646) " width="80.7888429" height="60.4449989" d="M49.1872764 20.4391462 L129.9761193 20.4391462 L129.9761193 80.8841451 L49.1872764 80.8841451 Z" class="uWfjCQcL_26"></path>
            <path id="Rectangle-Copy-27" stroke="#FFFFFF" stroke-width="0.3" transform="translate(89.945655, 50.414879) rotate(198.000000) translate(-89.945655, -50.414879) " width="80.7888429" height="60.4449989" d="M49.5512333 20.1923793 L130.3400762 20.1923793 L130.3400762 80.6373782 L49.5512333 80.6373782 Z" class="uWfjCQcL_27"></path>
            <path id="Rectangle-Copy-28" stroke="#FFFFFF" stroke-width="0.3" transform="translate(89.973226, 51.138447) rotate(192.000000) translate(-89.973226, -51.138447) " width="80.7888429" height="60.4449989" d="M49.5788048 20.9159472 L130.36764770000002 20.9159472 L130.36764770000002 81.3609461 L49.5788048 81.3609461 Z" class="uWfjCQcL_28"></path>
            <path id="Rectangle-Copy-29" stroke="#FFFFFF" stroke-width="0.3" transform="translate(89.943686, 51.087229) rotate(187.000000) translate(-89.943686, -51.087229) " width="80.7888429" height="60.4449989" d="M49.5492646 20.86473 L130.3381075 20.86473 L130.3381075 81.30972890000001 L49.5492646 81.30972890000001 Z" class="uWfjCQcL_29"></path>
            <path id="Rectangle-Copy-30" stroke="#FFFFFF" stroke-width="0.3" transform="translate(89.579708, 50.768977) rotate(182.000000) translate(-89.579708, -50.768977) " width="80.7888429" height="60.4449989" d="M49.1852864 20.5464778 L129.97412930000002 20.5464778 L129.97412930000002 80.9914767 L49.1852864 80.9914767 Z" class="uWfjCQcL_30"></path>
            <path id="Rectangle-Copy-31" stroke="#FFFFFF" stroke-width="0.3" transform="translate(90.037275, 50.790602) rotate(175.000000) translate(-90.037275, -50.790602) " width="80.7888429" height="60.4449989" d="M49.642854 20.5681026 L130.43169690000002 20.5681026 L130.43169690000002 81.0131015 L49.642854 81.0131015 Z" class="uWfjCQcL_31"></path>
        </g>
    </g>
<style data-made-with="vivus-instant">.uWfjCQcL_0{stroke-dasharray:425 427;stroke-dashoffset:426;animation:uWfjCQcL_draw 46ms linear 0ms forwards;}.uWfjCQcL_1{stroke-dasharray:283 285;stroke-dashoffset:284;animation:uWfjCQcL_draw 30ms linear 46ms forwards;}.uWfjCQcL_2{stroke-dasharray:283 285;stroke-dashoffset:284;animation:uWfjCQcL_draw 30ms linear 76ms forwards;}.uWfjCQcL_3{stroke-dasharray:283 285;stroke-dashoffset:284;animation:uWfjCQcL_draw 30ms linear 107ms forwards;}.uWfjCQcL_4{stroke-dasharray:283 285;stroke-dashoffset:284;animation:uWfjCQcL_draw 30ms linear 138ms forwards;}.uWfjCQcL_5{stroke-dasharray:283 285;stroke-dashoffset:284;animation:uWfjCQcL_draw 30ms linear 169ms forwards;}.uWfjCQcL_6{stroke-dasharray:283 285;stroke-dashoffset:284;animation:uWfjCQcL_draw 30ms linear 200ms forwards;}.uWfjCQcL_7{stroke-dasharray:283 285;stroke-dashoffset:284;animation:uWfjCQcL_draw 30ms linear 230ms forwards;}.uWfjCQcL_8{stroke-dasharray:283 285;stroke-dashoffset:284;animation:uWfjCQcL_draw 30ms linear 261ms forwards;}.uWfjCQcL_9{stroke-dasharray:283 285;stroke-dashoffset:284;animation:uWfjCQcL_draw 30ms linear 292ms forwards;}.uWfjCQcL_10{stroke-dasharray:283 285;stroke-dashoffset:284;animation:uWfjCQcL_draw 30ms linear 323ms forwards;}.uWfjCQcL_11{stroke-dasharray:283 285;stroke-dashoffset:284;animation:uWfjCQcL_draw 30ms linear 353ms forwards;}.uWfjCQcL_12{stroke-dasharray:283 285;stroke-dashoffset:284;animation:uWfjCQcL_draw 30ms linear 384ms forwards;}.uWfjCQcL_13{stroke-dasharray:283 285;stroke-dashoffset:284;animation:uWfjCQcL_draw 30ms linear 415ms forwards;}.uWfjCQcL_14{stroke-dasharray:283 285;stroke-dashoffset:284;animation:uWfjCQcL_draw 30ms linear 446ms forwards;}.uWfjCQcL_15{stroke-dasharray:283 285;stroke-dashoffset:284;animation:uWfjCQcL_draw 30ms linear 476ms forwards;}.uWfjCQcL_16{stroke-dasharray:283 285;stroke-dashoffset:284;animation:uWfjCQcL_draw 30ms linear 507ms forwards;}.uWfjCQcL_17{stroke-dasharray:283 285;stroke-dashoffset:284;animation:uWfjCQcL_draw 30ms linear 538ms forwards;}.uWfjCQcL_18{stroke-dasharray:283 285;stroke-dashoffset:284;animation:uWfjCQcL_draw 30ms linear 569ms forwards;}.uWfjCQcL_19{stroke-dasharray:283 285;stroke-dashoffset:284;animation:uWfjCQcL_draw 30ms linear 600ms forwards;}.uWfjCQcL_20{stroke-dasharray:283 285;stroke-dashoffset:284;animation:uWfjCQcL_draw 30ms linear 630ms forwards;}.uWfjCQcL_21{stroke-dasharray:283 285;stroke-dashoffset:284;animation:uWfjCQcL_draw 30ms linear 661ms forwards;}.uWfjCQcL_22{stroke-dasharray:283 285;stroke-dashoffset:284;animation:uWfjCQcL_draw 30ms linear 692ms forwards;}.uWfjCQcL_23{stroke-dasharray:283 285;stroke-dashoffset:284;animation:uWfjCQcL_draw 30ms linear 723ms forwards;}.uWfjCQcL_24{stroke-dasharray:283 285;stroke-dashoffset:284;animation:uWfjCQcL_draw 30ms linear 753ms forwards;}.uWfjCQcL_25{stroke-dasharray:283 285;stroke-dashoffset:284;animation:uWfjCQcL_draw 30ms linear 784ms forwards;}.uWfjCQcL_26{stroke-dasharray:283 285;stroke-dashoffset:284;animation:uWfjCQcL_draw 30ms linear 815ms forwards;}.uWfjCQcL_27{stroke-dasharray:283 285;stroke-dashoffset:284;animation:uWfjCQcL_draw 30ms linear 846ms forwards;}.uWfjCQcL_28{stroke-dasharray:283 285;stroke-dashoffset:284;animation:uWfjCQcL_draw 30ms linear 876ms forwards;}.uWfjCQcL_29{stroke-dasharray:283 285;stroke-dashoffset:284;animation:uWfjCQcL_draw 30ms linear 907ms forwards;}.uWfjCQcL_30{stroke-dasharray:283 285;stroke-dashoffset:284;animation:uWfjCQcL_draw 30ms linear 938ms forwards;}.uWfjCQcL_31{stroke-dasharray:283 285;stroke-dashoffset:284;animation:uWfjCQcL_draw 30ms linear 969ms forwards;}@keyframes uWfjCQcL_draw{100%{stroke-dashoffset:0;}}@keyframes uWfjCQcL_fade{0%{stroke-opacity:1;}92.3076923076923%{stroke-opacity:1;}100%{stroke-opacity:0;}}</style></svg>